<?xml version="1.0" encoding="UTF-8"?>
<svg width="14px" height="14px" viewBox="0 0 14 14" version="1.1" xmlns="http://www.w3.org/2000/svg" xmlns:xlink="http://www.w3.org/1999/xlink">
    <!-- Generator: Sketch 56.2 (81672) - https://sketch.com -->
    <title>Icon/ClientLight</title>
    <desc>Created with Sketch.</desc>
    <g id="Icon/ClientLight" stroke="none" stroke-width="1" fill="none" fill-rule="evenodd">
        <g id="Group-2" transform="translate(-0.500000, 1.000000)" stroke="#FFFFFF">
            <path d="M11.7601199,3.88160708 C11.5504811,4.22742964 10.9770215,4.79057713 10.0687305,4.6951119 C9.16043956,4.59964667 7.65769223,4.63451696 7.14510947,5.3104992 C6.63252671,5.98648144 4.8017861,5.41309773 4.85569075,4.90022927 C4.90959539,4.3873608 5.99740081,2.72188681 7.14193426,2.51816589 C8.2864677,2.31444496 9.33922053,2.09652127 9.54042638,1.97209912 C9.67456362,1.88915102 10.219003,1.47228997 11.1737445,0.721515976 L14.1528619,4.55923265 C13.230915,5.19756808 12.6844044,5.58461811 12.5133301,5.72038275 C12.2567187,5.9240297 11.4338526,7.16476148 11.3934635,7.3701098" id="Path-4" transform="translate(9.503693, 4.045813) rotate(-6.000000) translate(-9.503693, -4.045813) "></path>
            <path d="M6.2238094,3.12092906 L3.84610361,1.34010931 L0.913279845,5.00669209 C1.86236779,5.70195323 2.42967358,6.12994286 2.61519722,6.29066097 C2.89348267,6.53173813 3.55709456,8.47935597 4.09827687,8.97963603 C4.63945918,9.4799161 6.05430146,10.5002928 6.708286,11.0000338 C7.36227055,11.4997748 9.69707981,10.9237123 10.5880017,10.117281 C11.4789235,9.31084972 12.8122303,7.79608157 11.8408153,6.8857178 L8.3824819,4.4843946" id="Path-3" transform="translate(6.546742, 6.263317) rotate(4.000000) translate(-6.546742, -6.263317) "></path>
        </g>
    </g>
</svg>