<?xml version="1.0" encoding="UTF-8"?>
<svg width="19px" height="19px" viewBox="0 0 19 19" version="1.1" xmlns="http://www.w3.org/2000/svg" xmlns:xlink="http://www.w3.org/1999/xlink">
    <!-- Generator: Sketch 56.2 (81672) - https://sketch.com -->
    <title>Icon/Profile</title>
    <desc>Created with Sketch.</desc>
    <g id="Icon/Profile" stroke="none" stroke-width="1" fill="none" fill-rule="evenodd">
        <path d="M0.898697785,18.5956543 C2.08547649,18.1111115 4.44920259,17.2684284 6.00254845,16.8091661 C6.90562384,16.5240584 6.95189802,15.7726237 6.95189802,15.1308223 C6.95189802,14.4890209 5.65888795,11.4868052 5.2146665,8.93721574 C4.77044504,6.38762625 5.1131073,4.66634192 5.84808695,3.58430102 C6.58306661,2.50226011 8.21673526,2.07500005 9.54728753,2.07500005 C10.8778398,2.07500005 12.1212958,2.79779679 12.7378589,3.58430102 C13.4232412,4.46069144 13.8169688,5.86105806 13.5521604,8.28121314 C13.3004655,10.5815206 11.1063991,14.4005909 11.1063991,15.1308223 C11.1063991,15.8610537 11.1063991,16.5029913 12.0179013,16.7895035 C13.505237,17.2291032 16.5595921,18.2867775 17.81519,18.7797471" id="Fill-67" stroke="#FFFFFF"></path>
    </g>
</svg>