<?xml version="1.0" encoding="UTF-8"?>
<svg width="14px" height="14px" viewBox="0 0 14 14" version="1.1" xmlns="http://www.w3.org/2000/svg" xmlns:xlink="http://www.w3.org/1999/xlink">
  <!-- Generator: Sketch 56.2 (81672) - https://sketch.com -->
  <title>Icon/Settings</title>
  <desc>Created with Sketch.</desc>
  <g id="Icon/Settings" stroke="none" stroke-width="1" fill="none" fill-rule="evenodd">
    <path
      d="M13.2507475,13.2475 C13.1019975,13.395375 12.9051225,13.47675 12.6968725,13.47675 C12.4877475,13.47675 12.2917475,13.395375 12.1429975,13.2475 L9.37799754,10.481625 L10.4848725,9.375625 L13.2498725,12.1415 C13.5552475,12.446 13.5552475,12.942125 13.2507475,13.2475 L13.2507475,13.2475 Z M4.77374754,10.157 C5.13599754,10.996125 4.95224754,11.956 4.30649754,12.60175 C3.88912254,13.019125 3.33349754,13.248375 2.74199754,13.248375 C2.57312254,13.248375 2.40512254,13.23 2.24324754,13.192375 L3.01062254,12.425 L3.03337254,10.7205 L1.37349754,10.74325 L0.581622541,11.535125 C0.406622541,10.796625 0.620997541,10.017875 1.17224754,9.466625 C1.59049754,9.048375 2.14612254,8.81825 2.73587254,8.81825 C3.04299754,8.81825 3.33962254,8.8795 3.61962254,9.001125 L3.78237254,9.071125 L9.07437254,3.78 L9.00349754,3.61725 C8.63949754,2.776375 8.82237254,1.8165 9.46987254,1.169875 C9.88637254,0.751625 10.4428725,0.5215 11.0334975,0.5215 C11.2049975,0.5215 11.3729975,0.541625 11.5374975,0.578375 L10.7464975,1.37025 L10.7228725,3.031 L12.4282475,3.007375 L13.1956225,2.239125 C13.3679975,2.97675 13.1536225,3.754625 12.6049975,4.304125 C12.1858725,4.7215 11.6302475,4.9525 11.0396225,4.9525 C10.7342475,4.9525 10.4376225,4.89125 10.1584975,4.7705 L9.99574754,4.7005 L4.70374754,9.99425 L4.77374754,10.157 Z M1.08124754,1.44725 L1.45049754,1.078875 L2.74024754,2.3695 L2.37187254,2.737875 L1.08124754,1.44725 Z M13.6191225,11.77225 L10.8532475,9.00725 L11.2224975,8.638 L10.8532475,8.269625 L9.74724754,9.375625 L7.90362254,7.531125 L10.1191225,5.315625 C10.4139975,5.420625 10.7228725,5.474 11.0396225,5.474 C11.7702475,5.474 12.4562475,5.189625 12.9733725,4.673375 C13.7704975,3.875375 13.9962475,2.690625 13.5491225,1.65375 L13.3968725,1.30025 L12.2086225,2.489375 L11.2522475,2.501625 L11.2636225,1.589 L12.4754975,0.378 L12.1237475,0.22575 C11.7781225,0.076125 11.4106225,9.76996262e-15 11.0334975,9.76996262e-15 C10.3028725,9.76996262e-15 9.61687254,0.284375 9.10062254,0.800625 C8.34462254,1.556625 8.10137254,2.660875 8.45837254,3.6575 L6.24374754,5.872125 L3.10862254,2.737875 L3.47787254,2.3695 L1.45137254,0.34125 L0.343622541,1.44725 L2.37187254,3.4755 L2.74024754,3.107125 L5.87537254,6.241375 L3.65987254,8.456 C3.36412254,8.350125 3.05437254,8.29675 2.73587254,8.29675 C2.00612254,8.29675 1.31924754,8.581125 0.802997541,9.097375 C0.00412254091,9.89625 -0.220752459,11.08275 0.228122541,12.1205 L0.381247541,12.473125 L1.59224754,11.26125 L2.50487254,11.249 L2.49174754,12.20625 L1.30349754,13.3945 L1.65612254,13.54675 C2.00087254,13.6955 2.36662254,13.77075 2.74199754,13.77075 C3.47262254,13.77075 4.15862254,13.486375 4.67487254,12.970125 C5.42999754,12.215 5.67412254,11.1125 5.31887254,10.11675 L7.53437254,7.900375 L9.37887254,9.744 L8.27287254,10.850875 L8.64037254,11.21925 L9.00962254,10.850875 L11.7746225,13.615875 C12.0213725,13.862625 12.3494975,13.99825 12.6968725,13.99825 C13.0451225,13.99825 13.3732475,13.862625 13.6191225,13.615875 C14.1274975,13.108375 14.1274975,12.2815 13.6191225,11.77225 L13.6191225,11.77225 Z"
      id="Fill-47" fill="#FFFFFF"></path>
    <path
      d="M13.2507475,13.2475 C13.1019975,13.395375 12.9051225,13.47675 12.6968725,13.47675 C12.4877475,13.47675 12.2917475,13.395375 12.1429975,13.2475 L9.37799754,10.481625 L10.4848725,9.375625 L13.2498725,12.1415 C13.5552475,12.446 13.5552475,12.942125 13.2507475,13.2475 Z M4.77374754,10.157 C5.13599754,10.996125 4.95224754,11.956 4.30649754,12.60175 C3.88912254,13.019125 3.33349754,13.248375 2.74199754,13.248375 C2.57312254,13.248375 2.40512254,13.23 2.24324754,13.192375 L3.01062254,12.425 L3.03337254,10.7205 L1.37349754,10.74325 L0.581622541,11.535125 C0.406622541,10.796625 0.620997541,10.017875 1.17224754,9.466625 C1.59049754,9.048375 2.14612254,8.81825 2.73587254,8.81825 C3.04299754,8.81825 3.33962254,8.8795 3.61962254,9.001125 L3.78237254,9.071125 L9.07437254,3.78 L9.00349754,3.61725 C8.63949754,2.776375 8.82237254,1.8165 9.46987254,1.169875 C9.88637254,0.751625 10.4428725,0.5215 11.0334975,0.5215 C11.2049975,0.5215 11.3729975,0.541625 11.5374975,0.578375 L10.7464975,1.37025 L10.7228725,3.031 L12.4282475,3.007375 L13.1956225,2.239125 C13.3679975,2.97675 13.1536225,3.754625 12.6049975,4.304125 C12.1858725,4.7215 11.6302475,4.9525 11.0396225,4.9525 C10.7342475,4.9525 10.4376225,4.89125 10.1584975,4.7705 L9.99574754,4.7005 L4.70374754,9.99425 L4.77374754,10.157 Z M1.08124754,1.44725 L1.45049754,1.078875 L2.74024754,2.3695 L2.37187254,2.737875 L1.08124754,1.44725 Z M13.6191225,11.77225 L10.8532475,9.00725 L11.2224975,8.638 L10.8532475,8.269625 L9.74724754,9.375625 L7.90362254,7.531125 L10.1191225,5.315625 C10.4139975,5.420625 10.7228725,5.474 11.0396225,5.474 C11.7702475,5.474 12.4562475,5.189625 12.9733725,4.673375 C13.7704975,3.875375 13.9962475,2.690625 13.5491225,1.65375 L13.3968725,1.30025 L12.2086225,2.489375 L11.2522475,2.501625 L11.2636225,1.589 L12.4754975,0.378 L12.1237475,0.22575 C11.7781225,0.076125 11.4106225,9.76996262e-15 11.0334975,9.76996262e-15 C10.3028725,9.76996262e-15 9.61687254,0.284375 9.10062254,0.800625 C8.34462254,1.556625 8.10137254,2.660875 8.45837254,3.6575 L6.24374754,5.872125 L3.10862254,2.737875 L3.47787254,2.3695 L1.45137254,0.34125 L0.343622541,1.44725 L2.37187254,3.4755 L2.74024754,3.107125 L5.87537254,6.241375 L3.65987254,8.456 C3.36412254,8.350125 3.05437254,8.29675 2.73587254,8.29675 C2.00612254,8.29675 1.31924754,8.581125 0.802997541,9.097375 C0.00412254091,9.89625 -0.220752459,11.08275 0.228122541,12.1205 L0.381247541,12.473125 L1.59224754,11.26125 L2.50487254,11.249 L2.49174754,12.20625 L1.30349754,13.3945 L1.65612254,13.54675 C2.00087254,13.6955 2.36662254,13.77075 2.74199754,13.77075 C3.47262254,13.77075 4.15862254,13.486375 4.67487254,12.970125 C5.42999754,12.215 5.67412254,11.1125 5.31887254,10.11675 L7.53437254,7.900375 L9.37887254,9.744 L8.27287254,10.850875 L8.64037254,11.21925 L9.00962254,10.850875 L11.7746225,13.615875 C12.0213725,13.862625 12.3494975,13.99825 12.6968725,13.99825 C13.0451225,13.99825 13.3732475,13.862625 13.6191225,13.615875 C14.1274975,13.108375 14.1274975,12.2815 13.6191225,11.77225 Z"
      id="Stroke-49" stroke="#FFFFFF" stroke-width="0.5"></path>
  </g>
</svg>
