<?xml version="1.0" encoding="UTF-8"?>
<svg width="38px" height="19px" viewBox="0 0 38 19" version="1.1" xmlns="http://www.w3.org/2000/svg" xmlns:xlink="http://www.w3.org/1999/xlink">
    <!-- Generator: Sketch 56.2 (81672) - https://sketch.com -->
    <title>Icon/Team</title>
    <desc>Created with Sketch.</desc>
    <g id="Icon/Team" stroke="none" stroke-width="1" fill="none" fill-rule="evenodd">
        <path d="M4.34123733,16.9068277 C5.17180532,16.6065125 6.11875602,16.2857497 6.83588889,16.0737221 C7.51461111,15.8594443 7.54938929,15.2946904 7.54938929,14.8123332 C7.54938929,14.3299761 6.57760479,12.073608 6.24374233,10.1574191 C5.90987986,8.24123021 6.16741373,6.94756864 6.71980063,6.13434174 C7.27218754,5.32111483 8.5,5 9.5,5 C10.5,5 11.4345413,5.54323062 11.8979302,6.13434174 C12.4130413,6.7930084 12.7089542,7.8454786 12.5099328,9.66438879 C12.3207671,11.3932254 10.6717778,14.263515 10.6717778,14.8123332 C10.6717778,15.3611515 10.6717778,15.843611 11.3568333,16.0589443 C12.4746667,16.3893332 16.5,17 16.5,18.5" id="Fill-67" stroke="#FFFFFF"></path>
        <path d="M20.5,18.5 C21,17 24.6684444,16.4188888 25.8358889,16.0737221 C26.5146111,15.8594443 26.5493893,15.2946904 26.5493893,14.8123332 C26.5493893,14.3299761 25.5776048,12.073608 25.2437423,10.1574191 C24.9098799,8.24123021 25.1674137,6.94756864 25.7198006,6.13434174 C26.2721875,5.32111483 27.5,5 28.5,5 C29.5,5 30.4345413,5.54323062 30.8979302,6.13434174 C31.4130413,6.7930084 31.7089542,7.8454786 31.5099328,9.66438879 C31.3207671,11.3932254 29.6717778,14.263515 29.6717778,14.8123332 C29.6717778,15.3611515 29.6717778,15.843611 30.3568333,16.0589443 C31.0938724,16.276785 32.3429108,16.6965719 33.3788554,17.0634977" id="Fill-67-Copy" stroke="#FFFFFF"></path>
        <path d="M13,14.4359916 C13.8215166,14.1005795 15.4577443,13.5172541 16.5330074,13.1993418 C17.1581377,13.0019834 17.1901698,12.4818224 17.1901698,12.0375521 C17.1901698,11.5932818 16.2951174,9.5150764 15.9876167,7.75018964 C15.6801159,5.98530289 15.917315,4.79378875 16.4260854,4.04477419 C16.9348559,3.29575962 18.0657204,3 18.9867604,3 C19.9078005,3 20.7685505,3.50033717 21.1953502,4.04477419 C21.6697882,4.65143258 21.9423358,5.62079981 21.7590291,7.29608897 C21.5847999,8.88841678 20.0660147,11.5320684 20.0660147,12.0375521 C20.0660147,12.5430357 20.0660147,12.9874002 20.6969783,13.1857309 C21.7265476,13.4900323 23.8408452,14.2221797 24.71,14.563425" id="Fill-67-Copy-2" stroke="#FFFFFF"></path>
    </g>
</svg>